<?xml version="1.0" encoding="utf-8"?>
<!-- Generator: Adobe Illustrator 23.0.1, SVG Export Plug-In . SVG Version: 6.00 Build 0)  -->
<svg version="1.1" id="Layer_1" xmlns="http://www.w3.org/2000/svg" xmlns:xlink="http://www.w3.org/1999/xlink" x="0px" y="0px"
	 viewBox="0 0 321.3 301.7" style="enable-background:new 0 0 321.3 301.7;" xml:space="preserve">
<style type="text/css">
	.st0{fill:none;stroke:#36393A;stroke-width:1.8296;stroke-miterlimit:10;}
	.st1{fill:#FFFFFF;}
	.st2{fill:none;stroke:#AAAAAA;stroke-width:1.8296;stroke-miterlimit:10;}
	.st3{fill:none;stroke:#E78352;stroke-width:1.7628;stroke-miterlimit:10;}
	.st4{fill:#E78352;}
	.st5{opacity:0.65;}
	.st6{clip-path:url(#SVGID_2_);}
	.st7{filter:url(#Adobe_OpacityMaskFilter);}
	.st8{clip-path:url(#SVGID_4_);fill:url(#SVGID_6_);}
	.st9{clip-path:url(#SVGID_4_);mask:url(#SVGID_5_);fill:url(#SVGID_7_);}
	.st10{fill:#707070;}
	.st11{fill:none;stroke:#36393A;stroke-width:1.4747;stroke-miterlimit:10;}
	.st12{fill:#36393A;}
	.st13{fill:none;stroke:#E78352;stroke-width:1.4208;stroke-miterlimit:10;}
	.st14{clip-path:url(#SVGID_9_);}
	.st15{filter:url(#Adobe_OpacityMaskFilter_1_);}
	.st16{clip-path:url(#SVGID_11_);fill:url(#SVGID_13_);}
	.st17{clip-path:url(#SVGID_11_);mask:url(#SVGID_12_);fill:url(#SVGID_14_);}
</style>
<g>
	<polygon class="st1" points="180.6,36.6 286.1,97.7 285.5,178.4 276.9,183.4 171.4,123 171.7,41.7 	"/>
	<polygon class="st2" points="180.6,36.6 286.1,97.7 285.5,178.4 276.9,183.4 171.4,123 171.7,41.7 	"/>
	<polyline class="st2" points="276.9,183.4 277.2,103.1 171.7,41.7 	"/>
	<polygon class="st3" points="268.1,170.5 179.4,118.8 179.5,111.3 268.1,162.7 	"/>
	<line class="st2" x1="277.2" y1="103.1" x2="286.2" y2="98"/>
	<polygon class="st4" points="269.2,149.8 269.2,151.9 193.8,108 193.8,105.9 	"/>
	<polygon class="st4" points="269.1,142.4 269.1,144.4 242.8,129.1 242.8,127.1 	"/>
	<polygon class="st4" points="264.1,131.5 264,133.6 218.6,107.4 218.6,105.4 	"/>
	<polygon class="st4" points="263.6,122.9 263.6,125 240,111.4 240,109.3 	"/>
	<polygon class="st4" points="269.5,118.4 269.4,120.4 230.6,98 230.6,96 	"/>
	<polygon class="st4" points="226.7,93.9 226.7,96 217.4,90.6 217.4,88.6 	"/>
	<polygon class="st4" points="236.9,107.5 236.9,109.5 208.7,93.4 208.7,91.3 	"/>
	<polygon class="st4" points="234.2,122 234.2,124.1 212.1,111.2 212.1,109.1 	"/>
	<g class="st5">
		<g>
			<defs>
				<polyline id="SVGID_1_" points="271.5,168.5 224.1,85.8 176.2,113.2 				"/>
			</defs>
			<clipPath id="SVGID_2_">
				<use xlink:href="#SVGID_1_"  style="overflow:visible;"/>
			</clipPath>
			<g class="st6">
				<defs>
					<polygon id="SVGID_3_" points="268.1,170.5 179.4,118.8 179.5,111.3 268.1,162.7 					"/>
				</defs>
				<clipPath id="SVGID_4_">
					<use xlink:href="#SVGID_3_"  style="overflow:visible;"/>
				</clipPath>
				<defs>
					<filter id="Adobe_OpacityMaskFilter" filterUnits="userSpaceOnUse" x="176.2" y="85.8" width="95.3" height="110.2">
						<feColorMatrix  type="matrix" values="1 0 0 0 0  0 1 0 0 0  0 0 1 0 0  0 0 0 1 0"/>
					</filter>
				</defs>
				<mask maskUnits="userSpaceOnUse" x="176.2" y="85.8" width="95.3" height="110.2" id="SVGID_5_">
					<g class="st7">
						
							<linearGradient id="SVGID_6_" gradientUnits="userSpaceOnUse" x1="-178.9407" y1="-483.1573" x2="-178.5" y2="-483.1573" gradientTransform="matrix(108.8675 -62.2824 -62.2824 -108.8675 -10411.5303 -63590.3984)">
							<stop  offset="0" style="stop-color:#000000"/>
							<stop  offset="1" style="stop-color:#FFFFFF"/>
						</linearGradient>
						<polygon class="st8" points="176.2,113.2 224.1,85.8 271.5,168.5 223.5,196 						"/>
					</g>
				</mask>
				
					<linearGradient id="SVGID_7_" gradientUnits="userSpaceOnUse" x1="-178.9407" y1="-483.1573" x2="-178.5" y2="-483.1573" gradientTransform="matrix(108.8675 -62.2824 -62.2824 -108.8675 -10411.5303 -63590.4023)">
					<stop  offset="0" style="stop-color:#F8C762"/>
					<stop  offset="1" style="stop-color:#E78352"/>
				</linearGradient>
				<polygon class="st9" points="176.2,113.2 224.1,85.8 271.5,168.5 223.5,196 				"/>
			</g>
		</g>
	</g>
</g>
<polygon class="st10" points="198.5,226.8 156.5,248.8 93.5,212.8 134.5,192.8 "/>
<g>
	<polygon class="st11" points="155.5,135.3 49.7,197.1 49.7,217.2 193.7,300.8 319.8,228.9 	"/>
	<polyline class="st11" points="301.8,218.5 157.7,135.3 49.7,197.7 49.7,217.2 193.7,300.8 319.8,228.9 319.8,83.3 174.6,0.8 
		157.7,10.6 157.7,135.3 	"/>
	<line class="st11" x1="193.7" y1="280.8" x2="193.7" y2="300.8"/>
	<polyline class="st11" points="49.7,197.7 193.7,280.8 301.8,218.5 301.8,202.3 301.8,93.7 157.7,10.6 	"/>
	<polyline class="st11" points="69.3,103.8 85.8,113.1 85.8,122.1 57.6,138.3 0.7,105.5 0.7,97.2 29.2,81 48.8,92.1 	"/>
	<polygon class="st1" points="222.5,155.7 137.5,205 81.3,172.4 81.3,164.3 165.7,114.7 222.5,147.5 	"/>
	<polygon class="st11" points="222.5,155.7 137.5,205 81.3,172.4 81.3,164.3 165.7,114.7 222.5,147.5 	"/>
	<line class="st11" x1="137.8" y1="83.5" x2="81.3" y2="164.3"/>
	<line class="st11" x1="137.8" y1="83.5" x2="222.5" y2="147.5"/>
	<line class="st11" x1="137.8" y1="83.5" x2="165.7" y2="114.7"/>
	<polyline class="st11" points="137.8,83.5 137.8,57.3 25.7,93.4 	"/>
	<polygon class="st11" points="40.7,96.6 40.7,113.4 55.1,121.3 69.3,113.1 69.3,96.8 55,88.6 	"/>
	<polyline class="st11" points="40.7,96.6 55,105.1 69.3,96.8 	"/>
	<line class="st11" x1="55" y1="105.1" x2="55" y2="121.3"/>
	<path class="st11" d="M66.4,114.8c-0.2-2.4-1.8-4.2-3.6-4.2c-2,0-3.7,2.1-3.7,4.7c0,1.2,0.4,2.3,0.9,3.2"/>
	<polyline class="st11" points="69.3,103.8 85.8,113.1 85.8,122.1 57.6,138.3 0.7,105.5 0.7,97.2 29.2,81 48.8,92.1 	"/>
	<polyline class="st11" points="0.7,97.2 57.6,129.7 85.8,113.1 	"/>
	<polyline class="st11" points="81.3,164.3 137.3,196.7 222.5,147.5 	"/>
	<path class="st11" d="M54.2,140.3c0-3.4-2.3-7.7-5.2-9.5c-2.9-1.9-5.3-0.5-5.3,3c0,3.5,2.4,7.9,5.3,9.6
		C51.9,145.1,54.2,143.7,54.2,140.3"/>
	<path class="st12" d="M54.2,140.3c0-3.4-2.3-7.7-5.2-9.5c-2.9-1.9-5.3-0.5-5.3,3c0,3.5,2.4,7.9,5.3,9.6
		C51.9,145.1,54.2,143.7,54.2,140.3z"/>
	<path class="st11" d="M18.9,118.7c0-3.4-2.3-7.7-5.2-9.5c-2.9-1.9-5.3-0.5-5.3,3c0,3.5,2.4,7.9,5.3,9.6
		C16.6,123.6,18.9,122.2,18.9,118.7"/>
	<path class="st12" d="M18.9,118.7c0-3.4-2.3-7.7-5.2-9.5c-2.9-1.9-5.3-0.5-5.3,3c0,3.5,2.4,7.9,5.3,9.6
		C16.6,123.6,18.9,122.2,18.9,118.7z"/>
	<line class="st11" x1="57.6" y1="129.7" x2="57.6" y2="138.3"/>
	<polygon class="st13" points="93.8,163.3 165.5,122 170.7,125 99.3,166.5 	"/>
	<line class="st11" x1="137.3" y1="196.7" x2="137.3" y2="205"/>
	<polygon class="st11" points="62.4,132.1 62.4,130.7 66.6,128.2 66.7,129.6 	"/>
	<polygon class="st11" points="76.8,123.8 76.8,122.4 81,119.9 81,121.3 	"/>
	<polygon class="st4" points="107.9,172.4 106.4,171.5 167.3,136.4 168.7,137.2 	"/>
	<polygon class="st4" points="113.1,175.3 111.7,174.5 132.9,162.2 134.3,163 	"/>
	<polygon class="st4" points="122.7,176.1 121.3,175.3 157.7,154 159.2,154.8 	"/>
	<polygon class="st4" points="128.9,179.2 127.5,178.4 146.4,167.3 147.9,168.1 	"/>
	<polygon class="st4" points="129.7,185.2 128.3,184.3 159.5,166.1 161,166.9 	"/>
	<polygon class="st4" points="164,165 162.5,164.2 170,159.9 171.4,160.7 	"/>
	<polygon class="st4" points="150.4,166.7 149,165.9 171.6,152.7 173,153.5 	"/>
	<polygon class="st4" points="141.3,159 139.8,158.2 157.7,147.9 159.2,148.7 	"/>
	<g class="st5">
		<g>
			<defs>
				<rect id="SVGID_8_" x="93.8" y="122" width="76.9" height="44.6"/>
			</defs>
			<clipPath id="SVGID_9_">
				<use xlink:href="#SVGID_8_"  style="overflow:visible;"/>
			</clipPath>
			<g class="st14">
				<defs>
					<polygon id="SVGID_10_" points="93.8,163.3 165.5,122 170.7,125 99.3,166.5 					"/>
				</defs>
				<clipPath id="SVGID_11_">
					<use xlink:href="#SVGID_10_"  style="overflow:visible;"/>
				</clipPath>
				<defs>
					<filter id="Adobe_OpacityMaskFilter_1_" filterUnits="userSpaceOnUse" x="93.8" y="122" width="76.9" height="44.6">
						<feColorMatrix  type="matrix" values="1 0 0 0 0  0 1 0 0 0  0 0 1 0 0  0 0 0 1 0"/>
					</filter>
				</defs>
				<mask maskUnits="userSpaceOnUse" x="93.8" y="122" width="76.9" height="44.6" id="SVGID_12_">
					<g class="st15">
						
							<linearGradient id="SVGID_13_" gradientUnits="userSpaceOnUse" x1="-176.1437" y1="-487.9788" x2="-175.7885" y2="-487.9788" gradientTransform="matrix(0 125.4242 125.4242 0 61336.6172 22214.6387)">
							<stop  offset="0" style="stop-color:#000000"/>
							<stop  offset="1" style="stop-color:#FFFFFF"/>
						</linearGradient>
						<rect x="93.8" y="122" class="st16" width="76.9" height="44.6"/>
					</g>
				</mask>
				
					<linearGradient id="SVGID_14_" gradientUnits="userSpaceOnUse" x1="-176.1437" y1="-487.9788" x2="-175.7885" y2="-487.9788" gradientTransform="matrix(0 125.4242 125.4242 0 61336.6211 22214.6387)">
					<stop  offset="0" style="stop-color:#F8C762"/>
					<stop  offset="1" style="stop-color:#E78352"/>
				</linearGradient>
				<rect x="93.8" y="122" class="st17" width="76.9" height="44.6"/>
			</g>
		</g>
	</g>
	<line class="st11" x1="137.3" y1="196.7" x2="137.8" y2="83.5"/>
</g>
</svg>
